<svg xmlns="http://www.w3.org/2000/svg" xmlns:xlink="http://www.w3.org/1999/xlink" xmlns:lucid="lucid" width="1580" height="460"><g transform="translate(-20 -620)" lucid:page-tab-id="0_0"><path d="M660 946c0-3.3 2.7-6 6-6h88c3.3 0 6 2.7 6 6v108c0 3.3-2.7 6-6 6h-88c-3.3 0-6-2.7-6-6z" stroke="#4c535d" stroke-width="3" fill="url(#a)"/><use xlink:href="#b" transform="matrix(1,0,0,1,672,952) translate(4.111111111111107 53.77777777777778)"/><path d="M820 946c0-3.3 2.7-6 6-6h148c3.3 0 6 2.7 6 6v108c0 3.3-2.7 6-6 6H826c-3.3 0-6-2.7-6-6z" stroke="#4c535d" stroke-width="3" fill="url(#c)"/><use xlink:href="#d" transform="matrix(1,0,0,1,832,952) translate(37.19753086419753 38.77777777777778)"/><use xlink:href="#e" transform="matrix(1,0,0,1,832,952) translate(17.444444444444443 65.44444444444446)"/><use xlink:href="#f" transform="matrix(1,0,0,1,832,952) translate(74.17283950617283 65.44444444444446)"/><path d="M1140 1000c0 27.6-22.4 50-50 50s-50-22.4-50-50 22.4-50 50-50 50 22.4 50 50z" stroke="#4c535d" stroke-width="3" fill="url(#g)"/><use xlink:href="#h" transform="matrix(1,0,0,1,1045,955) translate(16.666666666666668 48.71527777777778)"/><path d="M300 646c0-3.3 2.7-6 6-6h148c3.3 0 6 2.7 6 6v108c0 3.3-2.7 6-6 6H306c-3.3 0-6-2.7-6-6z" stroke="#4c535d" stroke-width="3" fill="url(#i)"/><path d="M280 666c0-3.3 2.7-6 6-6h148c3.3 0 6 2.7 6 6v108c0 3.3-2.7 6-6 6H286c-3.3 0-6-2.7-6-6z" stroke="#4c535d" stroke-width="3" fill="url(#j)"/><path d="M260 686c0-3.3 2.7-6 6-6h148c3.3 0 6 2.7 6 6v108c0 3.3-2.7 6-6 6H266c-3.3 0-6-2.7-6-6z" stroke="#4c535d" stroke-width="3" fill="url(#k)"/><use xlink:href="#l" transform="matrix(1,0,0,1,272,692) translate(27.938271604938265 38.77777777777778)"/><use xlink:href="#m" transform="matrix(1,0,0,1,272,692) translate(11.271604938271608 65.44444444444446)"/><use xlink:href="#n" transform="matrix(1,0,0,1,272,692) translate(43.308641975308646 65.44444444444446)"/><use xlink:href="#o" transform="matrix(1,0,0,1,272,692) translate(80.34567901234568 65.44444444444446)"/><use xlink:href="#p" transform="matrix(1,0,0,1,272,692) translate(105.03703703703704 65.44444444444446)"/><path d="M600 740c0 27.6-22.4 50-50 50s-50-22.4-50-50 22.4-50 50-50 50 22.4 50 50z" stroke="#4c535d" stroke-width="3" fill="url(#q)"/><use xlink:href="#h" transform="matrix(1,0,0,1,505,695) translate(16.666666666666668 48.71527777777778)"/><path d="M700 666c0-3.3 2.7-6 6-6h148c3.3 0 6 2.7 6 6v108c0 3.3-2.7 6-6 6H706c-3.3 0-6-2.7-6-6z" stroke="#4c535d" stroke-width="3" fill="url(#r)"/><path d="M680 686c0-3.3 2.7-6 6-6h148c3.3 0 6 2.7 6 6v108c0 3.3-2.7 6-6 6H686c-3.3 0-6-2.7-6-6z" stroke="#4c535d" stroke-width="3" fill="url(#s)"/><use xlink:href="#t" transform="matrix(1,0,0,1,692,692) translate(10.685185185185176 38.77777777777778)"/><use xlink:href="#u" transform="matrix(1,0,0,1,692,692) translate(42.135802469135804 65.44444444444446)"/><use xlink:href="#p" transform="matrix(1,0,0,1,692,692) translate(74.17283950617283 65.44444444444446)"/><path d="M423 740h54.88" stroke="#4c535d" stroke-width="3" fill="none"/><path d="M423.04 741.5h-1.54v-3h1.54z" stroke="#4c535d" stroke-width=".05" fill="#4c535d"/><path d="M493.64 740l-14.26 4.64v-9.28z" stroke="#4c535d" stroke-width="3" fill="#4c535d"/><path d="M603 740h54.88" stroke="#4c535d" stroke-width="3" fill="none"/><path d="M603.04 741.5h-1.6l.06-1.5-.05-1.5h1.6z" stroke="#4c535d" stroke-width=".05" fill="#4c535d"/><path d="M673.65 740l-14.27 4.64v-9.28z" stroke="#4c535d" stroke-width="3" fill="#4c535d"/><path d="M300 906c0-3.3 2.7-6 6-6h148c3.3 0 6 2.7 6 6v108c0 3.3-2.7 6-6 6H306c-3.3 0-6-2.7-6-6z" stroke="#4c535d" stroke-width="3" fill="url(#v)"/><path d="M280 926c0-3.3 2.7-6 6-6h148c3.3 0 6 2.7 6 6v108c0 3.3-2.7 6-6 6H286c-3.3 0-6-2.7-6-6z" stroke="#4c535d" stroke-width="3" fill="url(#w)"/><path d="M260 946c0-3.3 2.7-6 6-6h148c3.3 0 6 2.7 6 6v108c0 3.3-2.7 6-6 6H266c-3.3 0-6-2.7-6-6z" stroke="#4c535d" stroke-width="3" fill="url(#x)"/><use xlink:href="#l" transform="matrix(1,0,0,1,272,952) translate(27.938271604938265 38.77777777777778)"/><use xlink:href="#m" transform="matrix(1,0,0,1,272,952) translate(11.271604938271608 65.44444444444446)"/><use xlink:href="#y" transform="matrix(1,0,0,1,272,952) translate(43.308641975308646 65.44444444444446)"/><use xlink:href="#o" transform="matrix(1,0,0,1,272,952) translate(80.34567901234568 65.44444444444446)"/><use xlink:href="#z" transform="matrix(1,0,0,1,272,952) translate(105.03703703703704 65.44444444444446)"/><path d="M600 1000c0 27.6-22.4 50-50 50s-50-22.4-50-50 22.4-50 50-50 50 22.4 50 50z" stroke="#4c535d" stroke-width="3" fill="url(#A)"/><use xlink:href="#h" transform="matrix(1,0,0,1,505,955) translate(16.666666666666668 48.71527777777778)"/><path d="M423 1000h54.88" stroke="#4c535d" stroke-width="3" fill="none"/><path d="M423.04 1001.5h-1.54v-3h1.54z" stroke="#4c535d" stroke-width=".05" fill="#4c535d"/><path d="M493.64 1000l-14.26 4.64v-9.28z" stroke="#4c535d" stroke-width="3" fill="#4c535d"/><path d="M950 646c0-3.3 2.7-6 6-6h148c3.3 0 6 2.7 6 6v108c0 3.3-2.7 6-6 6H956c-3.3 0-6-2.7-6-6z" stroke="#4c535d" stroke-width="3" fill="url(#B)"/><path d="M930 666c0-3.3 2.7-6 6-6h148c3.3 0 6 2.7 6 6v108c0 3.3-2.7 6-6 6H936c-3.3 0-6-2.7-6-6z" stroke="#4c535d" stroke-width="3" fill="url(#C)"/><path d="M910 686c0-3.3 2.7-6 6-6h148c3.3 0 6 2.7 6 6v108c0 3.3-2.7 6-6 6H916c-3.3 0-6-2.7-6-6z" stroke="#4c535d" stroke-width="3" fill="url(#D)"/><use xlink:href="#l" transform="matrix(1,0,0,1,922,692) translate(27.938271604938265 38.77777777777778)"/><use xlink:href="#m" transform="matrix(1,0,0,1,922,692) translate(11.271604938271608 65.44444444444446)"/><use xlink:href="#E" transform="matrix(1,0,0,1,922,692) translate(43.308641975308646 65.44444444444446)"/><use xlink:href="#o" transform="matrix(1,0,0,1,922,692) translate(80.34567901234568 65.44444444444446)"/><use xlink:href="#z" transform="matrix(1,0,0,1,922,692) translate(105.03703703703704 65.44444444444446)"/><path d="M1250 740c0 27.6-22.4 50-50 50s-50-22.4-50-50 22.4-50 50-50 50 22.4 50 50z" stroke="#4c535d" stroke-width="3" fill="url(#F)"/><use xlink:href="#h" transform="matrix(1,0,0,1,1155,695) translate(16.666666666666668 48.71527777777778)"/><path d="M1350 666c0-3.3 2.7-6 6-6h148c3.3 0 6 2.7 6 6v108c0 3.3-2.7 6-6 6h-148c-3.3 0-6-2.7-6-6z" stroke="#4c535d" stroke-width="3" fill="url(#G)"/><path d="M1330 686c0-3.3 2.7-6 6-6h148c3.3 0 6 2.7 6 6v108c0 3.3-2.7 6-6 6h-148c-3.3 0-6-2.7-6-6z" stroke="#4c535d" stroke-width="3" fill="url(#H)"/><use xlink:href="#t" transform="matrix(1,0,0,1,1342,692) translate(10.685185185185176 38.77777777777778)"/><use xlink:href="#u" transform="matrix(1,0,0,1,1342,692) translate(42.135802469135804 65.44444444444446)"/><use xlink:href="#p" transform="matrix(1,0,0,1,1342,692) translate(74.17283950617283 65.44444444444446)"/><path d="M1073 740h54.88" stroke="#4c535d" stroke-width="3" fill="none"/><path d="M1073.04 741.5h-1.54v-3h1.54z" stroke="#4c535d" stroke-width=".05" fill="#4c535d"/><path d="M1143.64 740l-14.26 4.64v-9.28z" stroke="#4c535d" stroke-width="3" fill="#4c535d"/><path d="M1253 740h54.88" stroke="#4c535d" stroke-width="3" fill="none"/><path d="M1253.04 741.5h-1.6l.06-1.5-.05-1.5h1.6z" stroke="#4c535d" stroke-width=".05" fill="#4c535d"/><path d="M1323.65 740l-14.27 4.64v-9.28z" stroke="#4c535d" stroke-width="3" fill="#4c535d"/><path d="M168 700c17.67 0 32 17.9 32 40s-14.33 40-32 40H72c-17.67 0-32-17.9-32-40s14.33-40 32-40z" stroke="#4c535d" stroke-width="3" fill="url(#I)"/><use xlink:href="#J" transform="matrix(1,0,0,1,45,705) translate(49.07907407407408 26.52777777777778)"/><use xlink:href="#m" transform="matrix(1,0,0,1,45,705) translate(24.449444444444445 53.19444444444445)"/><use xlink:href="#E" transform="matrix(1,0,0,1,45,705) translate(56.48648148148148 53.19444444444445)"/><use xlink:href="#K" transform="matrix(1,0,0,1,45,705) translate(93.52351851851851 53.19444444444445)"/><path d="M1548 960c17.67 0 32 17.9 32 40s-14.33 40-32 40h-96c-17.67 0-32-17.9-32-40s14.33-40 32-40z" stroke="#4c535d" stroke-width="3" fill="url(#L)"/><use xlink:href="#M" transform="matrix(1,0,0,1,1425,965) translate(44.17166666666667 26.52777777777778)"/><use xlink:href="#N" transform="matrix(1,0,0,1,1425,965) translate(39.29512345679012 53.19444444444445)"/><use xlink:href="#O" transform="matrix(1,0,0,1,1425,965) translate(65.15932098765433 53.19444444444445)"/><use xlink:href="#P" transform="matrix(1,0,0,1,1425,965) translate(91.02351851851851 53.19444444444445)"/><path d="M1200 946c0-3.3 2.7-6 6-6h148c3.3 0 6 2.7 6 6v108c0 3.3-2.7 6-6 6h-148c-3.3 0-6-2.7-6-6z" stroke="#4c535d" stroke-width="3" fill="url(#Q)"/><use xlink:href="#d" transform="matrix(1,0,0,1,1212,952) translate(37.19753086419753 38.77777777777778)"/><use xlink:href="#R" transform="matrix(1,0,0,1,1212,952) translate(29.79012345679012 65.44444444444446)"/><use xlink:href="#p" transform="matrix(1,0,0,1,1212,952) translate(86.51851851851852 65.44444444444446)"/><path d="M203 740h34.88" stroke="#4c535d" stroke-width="3" fill="none"/><path d="M203.04 741.5h-1.63l.1-1.48-.05-1.52h1.6z" stroke="#4c535d" stroke-width=".05" fill="#4c535d"/><path d="M253.65 740l-14.27 4.64v-9.28z" stroke="#4c535d" stroke-width="3" fill="#4c535d"/><path d="M887.88 740H843" stroke="#4c535d" stroke-width="3" fill="none"/><path d="M903.65 740l-14.27 4.64v-9.28z" stroke="#4c535d" stroke-width="3" fill="#4c535d"/><path d="M843.04 741.5h-1.54v-3h1.54z" stroke="#4c535d" stroke-width=".05" fill="#4c535d"/><path d="M237.88 1000H224.5c-3.3 0-6-2.7-6-6V876c0-3.3 2.7-6 6-6h1301c3.3 0 6-2.7 6-6V746c0-3.3-2.7-6-6-6H1493" stroke="#4c535d" stroke-width="3" fill="none"/><path d="M253.65 1000l-14.27 4.64v-9.28z" stroke="#4c535d" stroke-width="3" fill="#4c535d"/><path d="M1493.04 741.5h-1.54v-3h1.54z" stroke="#4c535d" stroke-width=".05" fill="#4c535d"/><path d="M603 1000h34.88" stroke="#4c535d" stroke-width="3" fill="none"/><path d="M603.04 1001.5h-1.6l.06-1.5-.05-1.5h1.6z" stroke="#4c535d" stroke-width=".05" fill="#4c535d"/><path d="M653.65 1000l-14.27 4.64v-9.28z" stroke="#4c535d" stroke-width="3" fill="#4c535d"/><path d="M763 1000h34.88" stroke="#4c535d" stroke-width="3" fill="none"/><path d="M763.04 1001.5h-1.54v-3h1.54z" stroke="#4c535d" stroke-width=".05" fill="#4c535d"/><path d="M813.65 1000l-14.27 4.64v-9.28z" stroke="#4c535d" stroke-width="3" fill="#4c535d"/><path d="M983 1000h34.88" stroke="#4c535d" stroke-width="3" fill="none"/><path d="M983.04 1001.5h-1.54v-3h1.54z" stroke="#4c535d" stroke-width=".05" fill="#4c535d"/><path d="M1033.64 1000l-14.26 4.64v-9.28z" stroke="#4c535d" stroke-width="3" fill="#4c535d"/><path d="M1143 1000h34.88" stroke="#4c535d" stroke-width="3" fill="none"/><path d="M1143.04 1001.5h-1.6l.06-1.5-.05-1.5h1.6z" stroke="#4c535d" stroke-width=".05" fill="#4c535d"/><path d="M1193.65 1000l-14.27 4.64v-9.28z" stroke="#4c535d" stroke-width="3" fill="#4c535d"/><path d="M1363 1000h34.88" stroke="#4c535d" stroke-width="3" fill="none"/><path d="M1363.04 1001.5h-1.54v-3h1.54z" stroke="#4c535d" stroke-width=".05" fill="#4c535d"/><path d="M1413.64 1000l-14.26 4.64v-9.28z" stroke="#4c535d" stroke-width="3" fill="#4c535d"/><defs><linearGradient gradientUnits="userSpaceOnUse" id="a" x1="660" y1="940" x2="660" y2="1060"><stop offset="0%" stop-color="#fff"/><stop offset="53.54%" stop-color="#dfe3e8"/><stop offset="100%" stop-color="#b6bfca"/></linearGradient><path fill="#282c33" d="M63-220v92h138v28H63V0H30v-248h175v28H63" id="S"/><path fill="#282c33" d="M24 0v-261h32V0H24" id="T"/><path fill="#282c33" d="M141-36C126-15 110 5 73 4 37 3 15-17 15-53c-1-64 63-63 125-63 3-35-9-54-41-54-24 1-41 7-42 31l-33-3c5-37 33-52 76-52 45 0 72 20 72 64v82c-1 20 7 32 28 27v20c-31 9-61-2-59-35zM48-53c0 20 12 33 32 33 41-3 63-29 60-74-43 2-92-5-92 41" id="U"/><path fill="#282c33" d="M59-47c-2 24 18 29 38 22v24C64 9 27 4 27-40v-127H5v-23h24l9-43h21v43h35v23H59v120" id="V"/><path fill="#282c33" d="M100-194c63 0 86 42 84 106H49c0 40 14 67 53 68 26 1 43-12 49-29l28 8c-11 28-37 45-77 45C44 4 14-33 15-96c1-61 26-98 85-98zm52 81c6-60-76-77-97-28-3 7-6 17-6 28h103" id="W"/><path fill="#282c33" d="M117-194c89-4 53 116 60 194h-32v-121c0-31-8-49-39-48C34-167 62-67 57 0H25l-1-190h30c1 10-1 24 2 32 11-22 29-35 61-36" id="X"/><g id="b"><use transform="matrix(0.06172839506172839,0,0,0.06172839506172839,0,0)" xlink:href="#S"/><use transform="matrix(0.06172839506172839,0,0,0.06172839506172839,13.518518518518517,0)" xlink:href="#T"/><use transform="matrix(0.06172839506172839,0,0,0.06172839506172839,18.39506172839506,0)" xlink:href="#U"/><use transform="matrix(0.06172839506172839,0,0,0.06172839506172839,30.74074074074074,0)" xlink:href="#V"/><use transform="matrix(0.06172839506172839,0,0,0.06172839506172839,36.91358024691358,0)" xlink:href="#V"/><use transform="matrix(0.06172839506172839,0,0,0.06172839506172839,43.086419753086425,0)" xlink:href="#W"/><use transform="matrix(0.06172839506172839,0,0,0.06172839506172839,55.4320987654321,0)" xlink:href="#X"/></g><linearGradient gradientUnits="userSpaceOnUse" id="c" x1="820" y1="940" x2="820" y2="1060"><stop offset="0%" stop-color="#fff"/><stop offset="47.8%" stop-color="#ffd6f5"/><stop offset="100%" stop-color="#ff90e3"/></linearGradient><path fill="#282c33" d="M30 0v-248h33v221h125V0H30" id="Y"/><path fill="#282c33" d="M24-231v-30h32v30H24zM24 0v-190h32V0H24" id="Z"/><path fill="#282c33" d="M114-163C36-179 61-72 57 0H25l-1-190h30c1 12-1 29 2 39 6-27 23-49 58-41v29" id="aa"/><g id="d"><use transform="matrix(0.06172839506172839,0,0,0.06172839506172839,0,0)" xlink:href="#Y"/><use transform="matrix(0.06172839506172839,0,0,0.06172839506172839,12.345679012345679,0)" xlink:href="#Z"/><use transform="matrix(0.06172839506172839,0,0,0.06172839506172839,17.22222222222222,0)" xlink:href="#X"/><use transform="matrix(0.06172839506172839,0,0,0.06172839506172839,29.5679012345679,0)" xlink:href="#W"/><use transform="matrix(0.06172839506172839,0,0,0.06172839506172839,41.913580246913575,0)" xlink:href="#U"/><use transform="matrix(0.06172839506172839,0,0,0.06172839506172839,54.25925925925925,0)" xlink:href="#aa"/></g><path fill="#282c33" d="M87 75C49 33 22-17 22-94c0-76 28-126 65-167h31c-38 41-64 92-64 168S80 34 118 75H87" id="ab"/><path fill="#282c33" d="M101-251c82-7 93 87 43 132L82-64C71-53 59-42 53-27h129V0H18c2-99 128-94 128-182 0-28-16-43-45-43s-46 15-49 41l-32-3c6-41 34-60 81-64" id="ac"/><path fill="#282c33" d="M54-142c48-35 137-8 131 61C196 18 31 33 14-55l32-4c7 23 22 37 52 37 35-1 51-22 54-58 4-55-73-65-99-34H22l8-134h141v27H59" id="ad"/><path fill="#282c33" d="M110-160c48 1 74 30 74 79 0 53-28 85-80 85-65 0-83-55-86-122-5-90 50-162 133-122 14 7 22 21 27 39l-31 6c-5-40-67-38-82-6-9 19-15 44-15 74 11-20 30-34 60-33zm-7 138c34 0 49-23 49-58s-16-56-50-56c-29 0-50 16-49 49 1 36 15 65 50 65" id="ae"/><path fill="#282c33" d="M68-38c1 34 0 65-14 84H32c9-13 17-26 17-46H33v-38h35" id="af"/><g id="e"><use transform="matrix(0.06172839506172839,0,0,0.06172839506172839,0,0)" xlink:href="#ab"/><use transform="matrix(0.06172839506172839,0,0,0.06172839506172839,7.345679012345679,0)" xlink:href="#ac"/><use transform="matrix(0.06172839506172839,0,0,0.06172839506172839,19.691358024691358,0)" xlink:href="#ad"/><use transform="matrix(0.06172839506172839,0,0,0.06172839506172839,32.03703703703704,0)" xlink:href="#ae"/><use transform="matrix(0.06172839506172839,0,0,0.06172839506172839,44.382716049382715,0)" xlink:href="#af"/></g><path fill="#282c33" d="M27 0v-27h64v-190l-56 39v-29l58-41h29v221h61V0H27" id="ag"/><path fill="#282c33" d="M33-261c38 41 65 92 65 168S71 34 33 75H2C39 34 66-17 66-93S39-220 2-261h31" id="ah"/><g id="f"><use transform="matrix(0.06172839506172839,0,0,0.06172839506172839,0,0)" xlink:href="#ad"/><use transform="matrix(0.06172839506172839,0,0,0.06172839506172839,12.345679012345679,0)" xlink:href="#ag"/><use transform="matrix(0.06172839506172839,0,0,0.06172839506172839,24.691358024691358,0)" xlink:href="#ac"/><use transform="matrix(0.06172839506172839,0,0,0.06172839506172839,37.03703703703704,0)" xlink:href="#ah"/></g><linearGradient gradientUnits="userSpaceOnUse" id="g" x1="1040" y1="950" x2="1040" y2="1050"><stop offset="0%" stop-color="#fff"/><stop offset="61.79%" stop-color="#ffdda6"/><stop offset="100%" stop-color="#ffc362"/></linearGradient><path fill="#282c33" d="M233-177c-1 41-23 64-60 70L243 0h-38l-65-103H63V0H30v-248c88 3 205-21 203 71zM63-129c60-2 137 13 137-47 0-61-80-42-137-45v92" id="ai"/><path fill="#282c33" d="M232-93c-1 65-40 97-104 97C67 4 28-28 28-90v-158h33c8 89-33 224 67 224 102 0 64-133 71-224h33v155" id="aj"/><g id="h"><use transform="matrix(0.06172839506172839,0,0,0.06172839506172839,0,0)" xlink:href="#ai"/><use transform="matrix(0.06172839506172839,0,0,0.06172839506172839,15.987654320987653,0)" xlink:href="#W"/><use transform="matrix(0.06172839506172839,0,0,0.06172839506172839,28.333333333333332,0)" xlink:href="#Y"/><use transform="matrix(0.06172839506172839,0,0,0.06172839506172839,40.67901234567901,0)" xlink:href="#aj"/></g><linearGradient gradientUnits="userSpaceOnUse" id="i" x1="300" y1="640" x2="300" y2="760"><stop offset="0%" stop-color="#fff"/><stop offset="50.55%" stop-color="#cfe4ff"/><stop offset="100%" stop-color="#8abdff"/></linearGradient><linearGradient gradientUnits="userSpaceOnUse" id="j" x1="280" y1="660" x2="280" y2="780"><stop offset="0%" stop-color="#fff"/><stop offset="50.55%" stop-color="#cfe4ff"/><stop offset="100%" stop-color="#8abdff"/></linearGradient><linearGradient gradientUnits="userSpaceOnUse" id="k" x1="260" y1="680" x2="260" y2="800"><stop offset="0%" stop-color="#fff"/><stop offset="50.55%" stop-color="#cfe4ff"/><stop offset="100%" stop-color="#8abdff"/></linearGradient><path fill="#282c33" d="M212-179c-10-28-35-45-73-45-59 0-87 40-87 99 0 60 29 101 89 101 43 0 62-24 78-52l27 14C228-24 195 4 139 4 59 4 22-46 18-125c-6-104 99-153 187-111 19 9 31 26 39 46" id="ak"/><path fill="#282c33" d="M100-194c62-1 85 37 85 99 1 63-27 99-86 99S16-35 15-95c0-66 28-99 85-99zM99-20c44 1 53-31 53-75 0-43-8-75-51-75s-53 32-53 75 10 74 51 75" id="al"/><path fill="#282c33" d="M108 0H70L1-190h34L89-25l56-165h34" id="am"/><path fill="#282c33" d="M30-248c118-7 216 8 213 122C240-48 200 0 122 0H30v-248zM63-27c89 8 146-16 146-99s-60-101-146-95v194" id="an"/><g id="l"><use transform="matrix(0.06172839506172839,0,0,0.06172839506172839,0,0)" xlink:href="#ak"/><use transform="matrix(0.06172839506172839,0,0,0.06172839506172839,15.987654320987653,0)" xlink:href="#al"/><use transform="matrix(0.06172839506172839,0,0,0.06172839506172839,28.333333333333332,0)" xlink:href="#X"/><use transform="matrix(0.06172839506172839,0,0,0.06172839506172839,40.67901234567901,0)" xlink:href="#am"/><use transform="matrix(0.06172839506172839,0,0,0.06172839506172839,51.79012345679013,0)" xlink:href="#ac"/><use transform="matrix(0.06172839506172839,0,0,0.06172839506172839,64.13580246913581,0)" xlink:href="#an"/></g><g id="m"><use transform="matrix(0.06172839506172839,0,0,0.06172839506172839,0,0)" xlink:href="#ab"/><use transform="matrix(0.06172839506172839,0,0,0.06172839506172839,7.345679012345679,0)" xlink:href="#ad"/><use transform="matrix(0.06172839506172839,0,0,0.06172839506172839,19.691358024691358,0)" xlink:href="#af"/></g><g id="n"><use transform="matrix(0.06172839506172839,0,0,0.06172839506172839,0,0)" xlink:href="#ag"/><use transform="matrix(0.06172839506172839,0,0,0.06172839506172839,12.345679012345679,0)" xlink:href="#ae"/><use transform="matrix(0.06172839506172839,0,0,0.06172839506172839,24.691358024691358,0)" xlink:href="#af"/></g><g id="o"><use transform="matrix(0.06172839506172839,0,0,0.06172839506172839,0,0)" xlink:href="#ag"/><use transform="matrix(0.06172839506172839,0,0,0.06172839506172839,12.345679012345679,0)" xlink:href="#af"/></g><g id="p"><use transform="matrix(0.06172839506172839,0,0,0.06172839506172839,0,0)" xlink:href="#ac"/><use transform="matrix(0.06172839506172839,0,0,0.06172839506172839,12.345679012345679,0)" xlink:href="#ah"/></g><linearGradient gradientUnits="userSpaceOnUse" id="q" x1="500" y1="690" x2="500" y2="790"><stop offset="0%" stop-color="#fff"/><stop offset="61.79%" stop-color="#ffdda6"/><stop offset="100%" stop-color="#ffc362"/></linearGradient><linearGradient gradientUnits="userSpaceOnUse" id="r" x1="700" y1="660" x2="700" y2="780"><stop offset="0%" stop-color="#fff"/><stop offset="56.66%" stop-color="#c3f7c8"/><stop offset="100%" stop-color="#85ef90"/></linearGradient><linearGradient gradientUnits="userSpaceOnUse" id="s" x1="680" y1="680" x2="680" y2="800"><stop offset="0%" stop-color="#fff"/><stop offset="56.66%" stop-color="#c3f7c8"/><stop offset="100%" stop-color="#85ef90"/></linearGradient><path fill="#282c33" d="M240 0l2-218c-23 76-54 145-80 218h-23L58-218 59 0H30v-248h44l77 211c21-75 51-140 76-211h43V0h-30" id="ao"/><path fill="#282c33" d="M141 0L90-78 38 0H4l68-98-65-92h35l48 74 47-74h35l-64 92 68 98h-35" id="ap"/><path fill="#282c33" d="M30-248c87 1 191-15 191 75 0 78-77 80-158 76V0H30v-248zm33 125c57 0 124 11 124-50 0-59-68-47-124-48v98" id="aq"/><g id="t"><use transform="matrix(0.06172839506172839,0,0,0.06172839506172839,0,0)" xlink:href="#ao"/><use transform="matrix(0.06172839506172839,0,0,0.06172839506172839,18.456790123456788,0)" xlink:href="#U"/><use transform="matrix(0.06172839506172839,0,0,0.06172839506172839,30.80246913580247,0)" xlink:href="#ap"/><use transform="matrix(0.06172839506172839,0,0,0.06172839506172839,41.91358024691358,0)" xlink:href="#aq"/><use transform="matrix(0.06172839506172839,0,0,0.06172839506172839,56.72839506172839,0)" xlink:href="#al"/><use transform="matrix(0.06172839506172839,0,0,0.06172839506172839,69.07407407407408,0)" xlink:href="#al"/><use transform="matrix(0.06172839506172839,0,0,0.06172839506172839,81.41975308641976,0)" xlink:href="#T"/><use transform="matrix(0.06172839506172839,0,0,0.06172839506172839,86.2962962962963,0)" xlink:href="#ac"/><use transform="matrix(0.06172839506172839,0,0,0.06172839506172839,98.64197530864199,0)" xlink:href="#an"/></g><g id="u"><use transform="matrix(0.06172839506172839,0,0,0.06172839506172839,0,0)" xlink:href="#ab"/><use transform="matrix(0.06172839506172839,0,0,0.06172839506172839,7.345679012345679,0)" xlink:href="#ac"/><use transform="matrix(0.06172839506172839,0,0,0.06172839506172839,19.691358024691358,0)" xlink:href="#af"/></g><linearGradient gradientUnits="userSpaceOnUse" id="v" x1="300" y1="900" x2="300" y2="1020"><stop offset="0%" stop-color="#fff"/><stop offset="50.55%" stop-color="#cfe4ff"/><stop offset="100%" stop-color="#8abdff"/></linearGradient><linearGradient gradientUnits="userSpaceOnUse" id="w" x1="280" y1="920" x2="280" y2="1040"><stop offset="0%" stop-color="#fff"/><stop offset="50.55%" stop-color="#cfe4ff"/><stop offset="100%" stop-color="#8abdff"/></linearGradient><linearGradient gradientUnits="userSpaceOnUse" id="x" x1="260" y1="940" x2="260" y2="1060"><stop offset="0%" stop-color="#fff"/><stop offset="50.55%" stop-color="#cfe4ff"/><stop offset="100%" stop-color="#8abdff"/></linearGradient><path fill="#282c33" d="M155-56V0h-30v-56H8v-25l114-167h33v167h35v25h-35zm-30-156c-27 46-58 90-88 131h88v-131" id="ar"/><g id="y"><use transform="matrix(0.06172839506172839,0,0,0.06172839506172839,0,0)" xlink:href="#ae"/><use transform="matrix(0.06172839506172839,0,0,0.06172839506172839,12.345679012345679,0)" xlink:href="#ar"/><use transform="matrix(0.06172839506172839,0,0,0.06172839506172839,24.691358024691358,0)" xlink:href="#af"/></g><path fill="#282c33" d="M101-251c68 0 85 55 85 127S166 4 100 4C33 4 14-52 14-124c0-73 17-127 87-127zm-1 229c47 0 54-49 54-102s-4-102-53-102c-51 0-55 48-55 102 0 53 5 102 54 102" id="as"/><g id="z"><use transform="matrix(0.06172839506172839,0,0,0.06172839506172839,0,0)" xlink:href="#as"/><use transform="matrix(0.06172839506172839,0,0,0.06172839506172839,12.345679012345679,0)" xlink:href="#ah"/></g><linearGradient gradientUnits="userSpaceOnUse" id="A" x1="500" y1="950" x2="500" y2="1050"><stop offset="0%" stop-color="#fff"/><stop offset="61.79%" stop-color="#ffdda6"/><stop offset="100%" stop-color="#ffc362"/></linearGradient><linearGradient gradientUnits="userSpaceOnUse" id="B" x1="950" y1="640" x2="950" y2="760"><stop offset="0%" stop-color="#fff"/><stop offset="50.55%" stop-color="#cfe4ff"/><stop offset="100%" stop-color="#8abdff"/></linearGradient><linearGradient gradientUnits="userSpaceOnUse" id="C" x1="930" y1="660" x2="930" y2="780"><stop offset="0%" stop-color="#fff"/><stop offset="50.55%" stop-color="#cfe4ff"/><stop offset="100%" stop-color="#8abdff"/></linearGradient><linearGradient gradientUnits="userSpaceOnUse" id="D" x1="910" y1="680" x2="910" y2="800"><stop offset="0%" stop-color="#fff"/><stop offset="50.55%" stop-color="#cfe4ff"/><stop offset="100%" stop-color="#8abdff"/></linearGradient><path fill="#282c33" d="M126-127c33 6 58 20 58 59 0 88-139 92-164 29-3-8-5-16-6-25l32-3c6 27 21 44 54 44 32 0 52-15 52-46 0-38-36-46-79-43v-28c39 1 72-4 72-42 0-27-17-43-46-43-28 0-47 15-49 41l-32-3c6-42 35-63 81-64 48-1 79 21 79 65 0 36-21 52-52 59" id="at"/><g id="E"><use transform="matrix(0.06172839506172839,0,0,0.06172839506172839,0,0)" xlink:href="#at"/><use transform="matrix(0.06172839506172839,0,0,0.06172839506172839,12.345679012345679,0)" xlink:href="#ac"/><use transform="matrix(0.06172839506172839,0,0,0.06172839506172839,24.691358024691358,0)" xlink:href="#af"/></g><linearGradient gradientUnits="userSpaceOnUse" id="F" x1="1150" y1="690" x2="1150" y2="790"><stop offset="0%" stop-color="#fff"/><stop offset="61.79%" stop-color="#ffdda6"/><stop offset="100%" stop-color="#ffc362"/></linearGradient><linearGradient gradientUnits="userSpaceOnUse" id="G" x1="1350" y1="660" x2="1350" y2="780"><stop offset="0%" stop-color="#fff"/><stop offset="56.66%" stop-color="#c3f7c8"/><stop offset="100%" stop-color="#85ef90"/></linearGradient><linearGradient gradientUnits="userSpaceOnUse" id="H" x1="1330" y1="680" x2="1330" y2="800"><stop offset="0%" stop-color="#fff"/><stop offset="56.66%" stop-color="#c3f7c8"/><stop offset="100%" stop-color="#85ef90"/></linearGradient><linearGradient gradientUnits="userSpaceOnUse" id="I" x1="40" y1="700" x2="40" y2="780"><stop offset="0%" stop-color="#fff"/><stop offset="47.4%" stop-color="#f4d9ff"/><stop offset="100%" stop-color="#e194ff"/></linearGradient><path fill="#282c33" d="M185-189c-5-48-123-54-124 2 14 75 158 14 163 119 3 78-121 87-175 55-17-10-28-26-33-46l33-7c5 56 141 63 141-1 0-78-155-14-162-118-5-82 145-84 179-34 5 7 8 16 11 25" id="au"/><g id="J"><use transform="matrix(0.06172839506172839,0,0,0.06172839506172839,0,0)" xlink:href="#au"/><use transform="matrix(0.06172839506172839,0,0,0.06172839506172839,14.814814814814813,0)" xlink:href="#V"/><use transform="matrix(0.06172839506172839,0,0,0.06172839506172839,20.98765432098765,0)" xlink:href="#U"/><use transform="matrix(0.06172839506172839,0,0,0.06172839506172839,33.33333333333333,0)" xlink:href="#V"/><use transform="matrix(0.06172839506172839,0,0,0.06172839506172839,39.50617283950617,0)" xlink:href="#W"/></g><g id="K"><use transform="matrix(0.06172839506172839,0,0,0.06172839506172839,0,0)" xlink:href="#at"/><use transform="matrix(0.06172839506172839,0,0,0.06172839506172839,12.345679012345679,0)" xlink:href="#ac"/><use transform="matrix(0.06172839506172839,0,0,0.06172839506172839,24.691358024691358,0)" xlink:href="#ah"/></g><linearGradient gradientUnits="userSpaceOnUse" id="L" x1="1420" y1="960" x2="1420" y2="1040"><stop offset="0%" stop-color="#fff"/><stop offset="45.07%" stop-color="#dedeff"/><stop offset="100%" stop-color="#9c9cff"/></linearGradient><path fill="#282c33" d="M205 0l-28-72H64L36 0H1l101-248h38L239 0h-34zm-38-99l-47-123c-12 45-31 82-46 123h93" id="av"/><path fill="#282c33" d="M96-169c-40 0-48 33-48 73s9 75 48 75c24 0 41-14 43-38l32 2c-6 37-31 61-74 61-59 0-76-41-82-99-10-93 101-131 147-64 4 7 5 14 7 22l-32 3c-4-21-16-35-41-35" id="aw"/><g id="M"><use transform="matrix(0.06172839506172839,0,0,0.06172839506172839,0,0)" xlink:href="#av"/><use transform="matrix(0.06172839506172839,0,0,0.06172839506172839,14.814814814814813,0)" xlink:href="#aw"/><use transform="matrix(0.06172839506172839,0,0,0.06172839506172839,25.925925925925924,0)" xlink:href="#V"/><use transform="matrix(0.06172839506172839,0,0,0.06172839506172839,32.098765432098766,0)" xlink:href="#Z"/><use transform="matrix(0.06172839506172839,0,0,0.06172839506172839,36.97530864197531,0)" xlink:href="#al"/><use transform="matrix(0.06172839506172839,0,0,0.06172839506172839,49.32098765432099,0)" xlink:href="#X"/></g><g id="N"><use transform="matrix(0.06172839506172839,0,0,0.06172839506172839,0,0)" xlink:href="#ab"/><use transform="matrix(0.06172839506172839,0,0,0.06172839506172839,7.345679012345679,0)" xlink:href="#as"/></g><g id="O"><use transform="matrix(0.06172839506172839,0,0,0.06172839506172839,0,0)" xlink:href="#al"/><use transform="matrix(0.06172839506172839,0,0,0.06172839506172839,12.345679012345679,0)" xlink:href="#aa"/></g><g id="P"><use transform="matrix(0.06172839506172839,0,0,0.06172839506172839,0,0)" xlink:href="#ag"/><use transform="matrix(0.06172839506172839,0,0,0.06172839506172839,12.345679012345679,0)" xlink:href="#ah"/></g><linearGradient gradientUnits="userSpaceOnUse" id="Q" x1="1200" y1="940" x2="1200" y2="1060"><stop offset="0%" stop-color="#fff"/><stop offset="47.8%" stop-color="#ffd6f5"/><stop offset="100%" stop-color="#ff90e3"/></linearGradient><g id="R"><use transform="matrix(0.06172839506172839,0,0,0.06172839506172839,0,0)" xlink:href="#ab"/><use transform="matrix(0.06172839506172839,0,0,0.06172839506172839,7.345679012345679,0)" xlink:href="#ad"/><use transform="matrix(0.06172839506172839,0,0,0.06172839506172839,19.691358024691358,0)" xlink:href="#ag"/><use transform="matrix(0.06172839506172839,0,0,0.06172839506172839,32.03703703703704,0)" xlink:href="#ac"/><use transform="matrix(0.06172839506172839,0,0,0.06172839506172839,44.382716049382715,0)" xlink:href="#af"/></g></defs></g></svg>