<svg xmlns="http://www.w3.org/2000/svg" xmlns:xlink="http://www.w3.org/1999/xlink" xmlns:lucid="lucid" width="1657.88" height="815"><g transform="translate(1699.9999999999998 4780)" lucid:page-tab-id="0_0"><path d="M-1646.67-4472.85c0-3.3 2.7-6 6-6H-1446c3.3 0 6 2.7 6 6v143c0 3.32-2.7 6-6 6h-194.67c-3.3 0-6-2.68-6-6z" stroke="#4c535d" stroke-width="3" fill="url(#a)"/><path d="M-1660-4452.85c0-3.3 2.7-6 6-6h194.67c3.3 0 6 2.7 6 6v143c0 3.32-2.7 6-6 6H-1654c-3.3 0-6-2.68-6-6z" stroke="#4c535d" stroke-width="3" fill="url(#b)"/><path d="M-1680-4432.85c0-3.3 2.7-6 6-6h194.67c3.3 0 6 2.7 6 6v143c0 3.32-2.7 6-6 6H-1674c-3.3 0-6-2.68-6-6z" stroke="#4c535d" stroke-width="3" fill="url(#c)"/><use xlink:href="#d" transform="matrix(1,0,0,1,-1667.9999999999998,-4426.846153846154) translate(32.3641975308642 54.62152777777778)"/><use xlink:href="#e" transform="matrix(1,0,0,1,-1667.9999999999998,-4426.846153846154) translate(86.62345679012347 54.62152777777778)"/><use xlink:href="#f" transform="matrix(1,0,0,1,-1667.9999999999998,-4426.846153846154) translate(41.56172839506172 81.28819444444446)"/><path d="M-1296.92-4432.85c0-3.3 2.68-6 6-6h131.07c3.32 0 6 2.7 6 6v95.3c0 3.33-2.68 6-6 6h-131.07c-3.32 0-6-2.67-6-6z" stroke="#4c535d" stroke-width="3" fill="url(#g)"/><path d="M-1306.15-4419c0-3.3 2.68-6 6-6h131.07c3.32 0 6 2.7 6 6v95.3c0 3.32-2.68 6-6 6h-131.07c-3.32 0-6-2.68-6-6z" stroke="#4c535d" stroke-width="3" fill="url(#h)"/><path d="M-1320-4405.15c0-3.32 2.7-6 6-6h131.08c3.3 0 6 2.68 6 6v95.3c0 3.32-2.7 6-6 6H-1314c-3.3 0-6-2.68-6-6z" stroke="#4c535d" stroke-width="3" fill="url(#i)"/><use xlink:href="#d" transform="matrix(1,0,0,1,-1308,-4399.153846153846) translate(0.8641975308642031 33.52777777777778)"/><use xlink:href="#e" transform="matrix(1,0,0,1,-1308,-4399.153846153846) translate(55.12345679012346 33.52777777777778)"/><use xlink:href="#j" transform="matrix(1,0,0,1,-1308,-4399.153846153846) translate(22.407407407407405 60.19444444444445)"/><path d="M-956.92-4754c0-3.3 2.68-6 6-6h131.07c3.32 0 6 2.7 6 6v95.3c0 3.32-2.68 6-6 6h-131.07c-3.32 0-6-2.68-6-6z" stroke="#4c535d" stroke-width="3" fill="url(#k)"/><path d="M-966.15-4740.15c0-3.32 2.68-6 6-6h131.07c3.32 0 6 2.68 6 6v95.3c0 3.32-2.68 6-6 6h-131.07c-3.32 0-6-2.68-6-6z" stroke="#4c535d" stroke-width="3" fill="url(#l)"/><path d="M-980-4726.3c0-3.32 2.7-6 6-6h131.08c3.3 0 6 2.68 6 6v95.3c0 3.3-2.7 6-6 6H-974c-3.3 0-6-2.7-6-6z" stroke="#4c535d" stroke-width="3" fill="url(#m)"/><use xlink:href="#d" transform="matrix(1,0,0,1,-968,-4720.3076923076915) translate(0.8641975308642031 33.52777777777778)"/><use xlink:href="#e" transform="matrix(1,0,0,1,-968,-4720.3076923076915) translate(55.12345679012346 33.52777777777778)"/><use xlink:href="#j" transform="matrix(1,0,0,1,-968,-4720.3076923076915) translate(22.407407407407405 60.19444444444445)"/><path d="M-956.92-4594c0-3.3 2.68-6 6-6h131.07c3.32 0 6 2.7 6 6v95.3c0 3.32-2.68 6-6 6h-131.07c-3.32 0-6-2.68-6-6z" stroke="#4c535d" stroke-width="3" fill="url(#n)"/><path d="M-966.15-4580.15c0-3.32 2.68-6 6-6h131.07c3.32 0 6 2.68 6 6v95.3c0 3.32-2.68 6-6 6h-131.07c-3.32 0-6-2.68-6-6z" stroke="#4c535d" stroke-width="3" fill="url(#o)"/><path d="M-980-4566.3c0-3.32 2.7-6 6-6h131.08c3.3 0 6 2.68 6 6v95.3c0 3.3-2.7 6-6 6H-974c-3.3 0-6-2.7-6-6z" stroke="#4c535d" stroke-width="3" fill="url(#p)"/><use xlink:href="#d" transform="matrix(1,0,0,1,-968.0000000000002,-4560.3076923076915) translate(0.8641975308642031 33.52777777777778)"/><use xlink:href="#e" transform="matrix(1,0,0,1,-968.0000000000002,-4560.3076923076915) translate(55.12345679012346 33.52777777777778)"/><use xlink:href="#j" transform="matrix(1,0,0,1,-968.0000000000002,-4560.3076923076915) translate(22.407407407407405 60.19444444444445)"/><path d="M-954.62-4434c0-3.3 2.7-6 6-6h131.08c3.32 0 6 2.7 6 6v95.3c0 3.32-2.68 6-6 6h-131.08c-3.3 0-6-2.68-6-6z" stroke="#4c535d" stroke-width="3" fill="url(#q)"/><path d="M-963.85-4420.15c0-3.32 2.7-6 6-6h131.08c3.3 0 6 2.68 6 6v95.3c0 3.32-2.7 6-6 6h-131.08c-3.3 0-6-2.68-6-6z" stroke="#4c535d" stroke-width="3" fill="url(#r)"/><path d="M-977.7-4406.3c0-3.32 2.7-6 6-6h131.08c3.32 0 6 2.68 6 6v95.3c0 3.3-2.68 6-6 6H-971.7c-3.3 0-6-2.7-6-6z" stroke="#4c535d" stroke-width="3" fill="url(#s)"/><use xlink:href="#d" transform="matrix(1,0,0,1,-965.6923076923078,-4400.3076923076915) translate(0.8641975308642031 33.52777777777778)"/><use xlink:href="#e" transform="matrix(1,0,0,1,-965.6923076923078,-4400.3076923076915) translate(55.12345679012346 33.52777777777778)"/><use xlink:href="#j" transform="matrix(1,0,0,1,-965.6923076923078,-4400.3076923076915) translate(22.407407407407405 60.19444444444445)"/><path d="M-956.92-4274c0-3.3 2.68-6 6-6h131.07c3.32 0 6 2.7 6 6v95.3c0 3.32-2.68 6-6 6h-131.07c-3.32 0-6-2.68-6-6z" stroke="#4c535d" stroke-width="3" fill="url(#t)"/><path d="M-966.15-4260.15c0-3.32 2.68-6 6-6h131.07c3.32 0 6 2.68 6 6v95.3c0 3.32-2.68 6-6 6h-131.07c-3.32 0-6-2.68-6-6z" stroke="#4c535d" stroke-width="3" fill="url(#u)"/><path d="M-980-4246.3c0-3.32 2.7-6 6-6h131.08c3.3 0 6 2.68 6 6v95.3c0 3.3-2.7 6-6 6H-974c-3.3 0-6-2.7-6-6z" stroke="#4c535d" stroke-width="3" fill="url(#v)"/><use xlink:href="#d" transform="matrix(1,0,0,1,-968.0000000000002,-4240.3076923076915) translate(0.8641975308642031 33.52777777777778)"/><use xlink:href="#e" transform="matrix(1,0,0,1,-968.0000000000002,-4240.3076923076915) translate(55.12345679012346 33.52777777777778)"/><use xlink:href="#j" transform="matrix(1,0,0,1,-968.0000000000002,-4240.3076923076915) translate(22.407407407407405 60.19444444444445)"/><path d="M-954.62-4114c0-3.3 2.7-6 6-6h131.08c3.32 0 6 2.7 6 6v95.3c0 3.32-2.68 6-6 6h-131.08c-3.3 0-6-2.68-6-6z" stroke="#4c535d" stroke-width="3" fill="url(#w)"/><path d="M-963.85-4100.15c0-3.32 2.7-6 6-6h131.08c3.3 0 6 2.68 6 6v95.3c0 3.32-2.7 6-6 6h-131.08c-3.3 0-6-2.68-6-6z" stroke="#4c535d" stroke-width="3" fill="url(#x)"/><path d="M-977.7-4086.3c0-3.32 2.7-6 6-6h131.08c3.32 0 6 2.68 6 6v95.3c0 3.3-2.68 6-6 6H-971.7c-3.3 0-6-2.7-6-6z" stroke="#4c535d" stroke-width="3" fill="url(#y)"/><use xlink:href="#d" transform="matrix(1,0,0,1,-965.6923076923081,-4080.3076923076924) translate(0.8641975308642031 33.52777777777778)"/><use xlink:href="#e" transform="matrix(1,0,0,1,-965.6923076923081,-4080.3076923076924) translate(55.12345679012346 33.52777777777778)"/><use xlink:href="#j" transform="matrix(1,0,0,1,-965.6923076923081,-4080.3076923076924) translate(22.407407407407405 60.19444444444445)"/><path d="M-645.2-4726.3c0-3.32 2.7-6 6-6h131.08c3.3 0 6 2.68 6 6v95.3c0 3.3-2.7 6-6 6H-639.2c-3.3 0-6-2.7-6-6z" stroke="#4c535d" stroke-width="3" fill="url(#z)"/><use xlink:href="#A" transform="matrix(1,0,0,1,-633.2000000000002,-4720.3076923076915) translate(0.8641975308642031 33.52777777777778)"/><use xlink:href="#e" transform="matrix(1,0,0,1,-633.2000000000002,-4720.3076923076915) translate(55.12345679012346 33.52777777777778)"/><use xlink:href="#j" transform="matrix(1,0,0,1,-633.2000000000002,-4720.3076923076915) translate(22.407407407407405 60.19444444444445)"/><path d="M-645.2-4566.3c0-3.32 2.7-6 6-6h131.08c3.3 0 6 2.68 6 6v95.3c0 3.3-2.7 6-6 6H-639.2c-3.3 0-6-2.7-6-6z" stroke="#4c535d" stroke-width="3" fill="url(#B)"/><use xlink:href="#A" transform="matrix(1,0,0,1,-633.1999999999999,-4560.3076923076915) translate(0.8641975308642031 33.52777777777778)"/><use xlink:href="#e" transform="matrix(1,0,0,1,-633.1999999999999,-4560.3076923076915) translate(55.12345679012346 33.52777777777778)"/><use xlink:href="#j" transform="matrix(1,0,0,1,-633.1999999999999,-4560.3076923076915) translate(22.407407407407405 60.19444444444445)"/><path d="M-645.2-4405.15c0-3.32 2.7-6 6-6h131.08c3.3 0 6 2.68 6 6v95.3c0 3.32-2.7 6-6 6H-639.2c-3.3 0-6-2.68-6-6z" stroke="#4c535d" stroke-width="3" fill="url(#C)"/><use xlink:href="#A" transform="matrix(1,0,0,1,-633.2000000000002,-4399.153846153846) translate(0.8641975308642031 33.52777777777778)"/><use xlink:href="#e" transform="matrix(1,0,0,1,-633.2000000000002,-4399.153846153846) translate(55.12345679012346 33.52777777777778)"/><use xlink:href="#j" transform="matrix(1,0,0,1,-633.2000000000002,-4399.153846153846) translate(22.407407407407405 60.19444444444445)"/><path d="M-645.2-4246.3c0-3.32 2.7-6 6-6h131.08c3.3 0 6 2.68 6 6v95.3c0 3.3-2.7 6-6 6H-639.2c-3.3 0-6-2.7-6-6z" stroke="#4c535d" stroke-width="3" fill="url(#D)"/><use xlink:href="#A" transform="matrix(1,0,0,1,-633.2000000000002,-4240.3076923076915) translate(0.8641975308642031 33.52777777777778)"/><use xlink:href="#e" transform="matrix(1,0,0,1,-633.2000000000002,-4240.3076923076915) translate(55.12345679012346 33.52777777777778)"/><use xlink:href="#j" transform="matrix(1,0,0,1,-633.2000000000002,-4240.3076923076915) translate(22.407407407407405 60.19444444444445)"/><path d="M-645.2-4087.46c0-3.32 2.7-6 6-6h131.08c3.3 0 6 2.68 6 6v95.3c0 3.32-2.7 6-6 6H-639.2c-3.3 0-6-2.68-6-6z" stroke="#4c535d" stroke-width="3" fill="url(#E)"/><use xlink:href="#A" transform="matrix(1,0,0,1,-633.1999999999999,-4081.4615384615386) translate(0.8641975308642031 33.52777777777778)"/><use xlink:href="#e" transform="matrix(1,0,0,1,-633.1999999999999,-4081.4615384615386) translate(55.12345679012346 33.52777777777778)"/><use xlink:href="#j" transform="matrix(1,0,0,1,-633.1999999999999,-4081.4615384615386) translate(22.407407407407405 60.19444444444445)"/><path d="M-205.2-4462.85c0-3.3 2.7-6 6-6h131.08c3.3 0 6 2.7 6 6v95.3c0 3.33-2.7 6-6 6H-199.2c-3.3 0-6-2.67-6-6z" stroke="#4c535d" stroke-width="3" fill="url(#F)"/><path d="M-225.2-4446.5c0-3.32 2.7-6 6-6h131.08c3.3 0 6 2.68 6 6v95.3c0 3.32-2.7 6-6 6H-219.2c-3.3 0-6-2.68-6-6z" stroke="#4c535d" stroke-width="3" fill="url(#G)"/><path d="M-245.2-4432.66c0-3.3 2.7-6 6-6h131.08c3.3 0 6 2.7 6 6v95.3c0 3.32-2.7 6-6 6H-239.2c-3.3 0-6-2.68-6-6z" stroke="#4c535d" stroke-width="3" fill="url(#H)"/><path d="M-265.2-4418.8c0-3.33 2.7-6 6-6h131.08c3.3 0 6 2.67 6 6v95.3c0 3.3-2.7 6-6 6H-259.2c-3.3 0-6-2.7-6-6z" stroke="#4c535d" stroke-width="3" fill="url(#I)"/><path d="M-285.2-4402.85c0-3.3 2.7-6 6-6h131.08c3.3 0 6 2.7 6 6v95.3c0 3.33-2.7 6-6 6H-279.2c-3.3 0-6-2.67-6-6z" stroke="#4c535d" stroke-width="3" fill="url(#J)"/><use xlink:href="#K" transform="matrix(1,0,0,1,-273.20000000000016,-4396.846153846153) translate(34.074074074074076 33.52777777777778)"/><use xlink:href="#L" transform="matrix(1,0,0,1,-273.20000000000016,-4396.846153846153) translate(10.679012345679006 60.19444444444445)"/><path d="M-1470.83-4361.35H-1340" stroke="#4c535d" stroke-width="2" fill="none"/><path d="M-1470.8-4360.35h-1.03v-2h1.02z" stroke="#4c535d" stroke-width=".05" fill="#4c535d"/><path d="M-1324.74-4361.35l-14.26 4.64v-9.28z" stroke="#4c535d" stroke-width="2" fill="#4c535d"/><path d="M-1174.42-4357.5h176.72" stroke="#4c535d" stroke-width="2" fill="none"/><path d="M-1174.4-4356.5h-1.02v-2h1.02z" stroke="#4c535d" stroke-width=".05" fill="#4c535d"/><path d="M-982.43-4357.5l-14.27 4.64v-9.28z" stroke="#4c535d" stroke-width="2" fill="#4c535d"/><path d="M-997.7-4038.65h-80.85c-3.3 0-6-2.7-6-6v-311.85" stroke="#4c535d" stroke-width="2" fill="none"/><path d="M-982.43-4038.65l-14.26 4.63v-9.27z" stroke="#4c535d" stroke-width="2" fill="#4c535d"/><path d="M-1084.55-4356.47v-1.03M-1000-4678.65h-78.55c-3.3 0-6 2.68-6 6v314.15" stroke="#4c535d" stroke-width="2" fill="none"/><path d="M-984.74-4678.65l-14.26 4.63v-9.27z" stroke="#4c535d" stroke-width="2" fill="#4c535d"/><path d="M-1084.55-4358.53v1.03M-1000-4518.65h-83.55" stroke="#4c535d" stroke-width="2" fill="none"/><path d="M-984.74-4518.65l-14.26 4.63v-9.27z" stroke="#4c535d" stroke-width="2" fill="#4c535d"/><path d="M-1083.52-4518.65h-1.03M-1000-4198.65H-1083.55" stroke="#4c535d" stroke-width="2" fill="none"/><path d="M-984.74-4198.65l-14.26 4.63v-9.27z" stroke="#4c535d" stroke-width="2" fill="#4c535d"/><path d="M-1083.52-4198.65h-1.03M-832.12-4038.65h166.92" stroke="#4c535d" stroke-width="2" fill="none"/><path d="M-832.1-4037.65h-1.02v-2h1.03z" stroke="#4c535d" stroke-width=".05" fill="#4c535d"/><path d="M-649.94-4038.65l-14.26 4.63v-9.27z" stroke="#4c535d" stroke-width="2" fill="#4c535d"/><path d="M-834.42-4198.65h169.22" stroke="#4c535d" stroke-width="2" fill="none"/><path d="M-834.4-4197.65h-1.02v-2h1.02z" stroke="#4c535d" stroke-width=".05" fill="#4c535d"/><path d="M-649.94-4198.65l-14.26 4.63v-9.27z" stroke="#4c535d" stroke-width="2" fill="#4c535d"/><path d="M-832.12-4358.65h166.92" stroke="#4c535d" stroke-width="2" fill="none"/><path d="M-832.1-4357.65h-1.02v-2h1.03z" stroke="#4c535d" stroke-width=".05" fill="#4c535d"/><path d="M-649.94-4358.65l-14.26 4.63v-9.27z" stroke="#4c535d" stroke-width="2" fill="#4c535d"/><path d="M-834.42-4518.65h169.22" stroke="#4c535d" stroke-width="2" fill="none"/><path d="M-834.4-4517.65h-1.02v-2h1.02z" stroke="#4c535d" stroke-width=".05" fill="#4c535d"/><path d="M-649.94-4518.65l-14.26 4.63v-9.27z" stroke="#4c535d" stroke-width="2" fill="#4c535d"/><path d="M-834.42-4678.65h169.22" stroke="#4c535d" stroke-width="2" fill="none"/><path d="M-834.4-4677.65h-1.02v-2h1.02z" stroke="#4c535d" stroke-width=".05" fill="#4c535d"/><path d="M-649.94-4678.65l-14.26 4.63v-9.27z" stroke="#4c535d" stroke-width="2" fill="#4c535d"/><path d="M-499.62-4357.5h194.42" stroke="#4c535d" stroke-width="2" fill="none"/><path d="M-499.6-4356.5h-1.02v-2h1.02z" stroke="#4c535d" stroke-width=".05" fill="#4c535d"/><path d="M-289.94-4357.5l-14.26 4.64v-9.28z" stroke="#4c535d" stroke-width="2" fill="#4c535d"/><path d="M-499.62-4039.8h108.64c3.3 0 6-2.7 6-6v-310.7" stroke="#4c535d" stroke-width="2" fill="none"/><path d="M-499.6-4038.8h-1.02v-2h1.02z" stroke="#4c535d" stroke-width=".05" fill="#4c535d"/><path d="M-384.98-4356.47v-1.03M-499.62-4678.65h108.64c3.3 0 6 2.68 6 6v314.15" stroke="#4c535d" stroke-width="2" fill="none"/><path d="M-499.6-4677.65h-1.02v-2h1.02z" stroke="#4c535d" stroke-width=".05" fill="#4c535d"/><path d="M-384.98-4358.53v1.03M-499.62-4518.65h113.64" stroke="#4c535d" stroke-width="2" fill="none"/><path d="M-499.6-4517.65h-1.02v-2h1.02z" stroke="#4c535d" stroke-width=".05" fill="#4c535d"/><path d="M-386-4518.65h1.02M-499.62-4198.65h113.64" stroke="#4c535d" stroke-width="2" fill="none"/><path d="M-499.6-4197.65h-1.02v-2h1.02z" stroke="#4c535d" stroke-width=".05" fill="#4c535d"/><path d="M-386-4198.65h1.02" stroke="#4c535d" stroke-width="2" fill="none"/><defs><linearGradient gradientUnits="userSpaceOnUse" id="a" x1="-1646.67" y1="-4478.85" x2="-1646.67" y2="-4323.85"><stop offset="0%" stop-color="#b4d7ff"/><stop offset="55.23%" stop-color="#6db1ff"/><stop offset="100%" stop-color="#2b8eff"/></linearGradient><linearGradient gradientUnits="userSpaceOnUse" id="b" x1="-1660" y1="-4458.85" x2="-1660" y2="-4303.85"><stop offset="0%" stop-color="#87dd8e"/><stop offset="50.98%" stop-color="#54c45e"/><stop offset="100%" stop-color="#369e3f"/></linearGradient><linearGradient gradientUnits="userSpaceOnUse" id="c" x1="-1680" y1="-4438.85" x2="-1680" y2="-4283.85"><stop offset="0%" stop-color="#ffd2d2"/><stop offset="57.39%" stop-color="#ff8f8f"/><stop offset="100%" stop-color="#ff5151"/></linearGradient><path fill="#282c33" d="M233-177c-1 41-23 64-60 70L243 0h-38l-65-103H63V0H30v-248c88 3 205-21 203 71zM63-129c60-2 137 13 137-47 0-61-80-42-137-45v92" id="M"/><path fill="#282c33" d="M143 4C61 4 22-44 18-125c-5-107 100-154 193-111 17 8 29 25 37 43l-32 9c-13-25-37-40-76-40-61 0-88 39-88 99 0 61 29 100 91 101 35 0 62-11 79-27v-45h-74v-28h105v86C228-13 192 4 143 4" id="N"/><path fill="#282c33" d="M160-131c35 5 61 23 61 61C221 17 115-2 30 0v-248c76 3 177-17 177 60 0 33-19 50-47 57zm-97-11c50-1 110 9 110-42 0-47-63-36-110-37v79zm0 115c55-2 124 14 124-45 0-56-70-42-124-44v89" id="O"/><g id="d"><use transform="matrix(0.06172839506172839,0,0,0.06172839506172839,0,0)" xlink:href="#M"/><use transform="matrix(0.06172839506172839,0,0,0.06172839506172839,15.987654320987653,0)" xlink:href="#N"/><use transform="matrix(0.06172839506172839,0,0,0.06172839506172839,33.2716049382716,0)" xlink:href="#O"/></g><path fill="#282c33" d="M63-220v92h138v28H63V0H30v-248h175v28H63" id="P"/><path fill="#282c33" d="M114-163C36-179 61-72 57 0H25l-1-190h30c1 12-1 29 2 39 6-27 23-49 58-41v29" id="Q"/><path fill="#282c33" d="M141-36C126-15 110 5 73 4 37 3 15-17 15-53c-1-64 63-63 125-63 3-35-9-54-41-54-24 1-41 7-42 31l-33-3c5-37 33-52 76-52 45 0 72 20 72 64v82c-1 20 7 32 28 27v20c-31 9-61-2-59-35zM48-53c0 20 12 33 32 33 41-3 63-29 60-74-43 2-92-5-92 41" id="R"/><path fill="#282c33" d="M210-169c-67 3-38 105-44 169h-31v-121c0-29-5-50-35-48C34-165 62-65 56 0H25l-1-190h30c1 10-1 24 2 32 10-44 99-50 107 0 11-21 27-35 58-36 85-2 47 119 55 194h-31v-121c0-29-5-49-35-48" id="S"/><path fill="#282c33" d="M100-194c63 0 86 42 84 106H49c0 40 14 67 53 68 26 1 43-12 49-29l28 8c-11 28-37 45-77 45C44 4 14-33 15-96c1-61 26-98 85-98zm52 81c6-60-76-77-97-28-3 7-6 17-6 28h103" id="T"/><g id="e"><use transform="matrix(0.06172839506172839,0,0,0.06172839506172839,0,0)" xlink:href="#P"/><use transform="matrix(0.06172839506172839,0,0,0.06172839506172839,13.518518518518517,0)" xlink:href="#Q"/><use transform="matrix(0.06172839506172839,0,0,0.06172839506172839,20.864197530864196,0)" xlink:href="#R"/><use transform="matrix(0.06172839506172839,0,0,0.06172839506172839,33.20987654320987,0)" xlink:href="#S"/><use transform="matrix(0.06172839506172839,0,0,0.06172839506172839,51.66666666666666,0)" xlink:href="#T"/></g><path fill="#282c33" d="M87 75C49 33 22-17 22-94c0-76 28-126 65-167h31c-38 41-64 92-64 168S80 34 118 75H87" id="U"/><path fill="#282c33" d="M64 0c3-98 48-159 88-221H18v-27h164v26C143-157 98-101 97 0H64" id="V"/><path fill="#282c33" d="M126-127c33 6 58 20 58 59 0 88-139 92-164 29-3-8-5-16-6-25l32-3c6 27 21 44 54 44 32 0 52-15 52-46 0-38-36-46-79-43v-28c39 1 72-4 72-42 0-27-17-43-46-43-28 0-47 15-49 41l-32-3c6-42 35-63 81-64 48-1 79 21 79 65 0 36-21 52-52 59" id="W"/><path fill="#282c33" d="M110-160c48 1 74 30 74 79 0 53-28 85-80 85-65 0-83-55-86-122-5-90 50-162 133-122 14 7 22 21 27 39l-31 6c-5-40-67-38-82-6-9 19-15 44-15 74 11-20 30-34 60-33zm-7 138c34 0 49-23 49-58s-16-56-50-56c-29 0-50 16-49 49 1 36 15 65 50 65" id="X"/><path fill="#282c33" d="M141 0L90-78 38 0H4l68-98-65-92h35l48 74 47-74h35l-64 92 68 98h-35" id="Y"/><path fill="#282c33" d="M33-261c38 41 65 92 65 168S71 34 33 75H2C39 34 66-17 66-93S39-220 2-261h31" id="Z"/><g id="f"><use transform="matrix(0.06172839506172839,0,0,0.06172839506172839,0,0)" xlink:href="#U"/><use transform="matrix(0.06172839506172839,0,0,0.06172839506172839,7.345679012345679,0)" xlink:href="#V"/><use transform="matrix(0.06172839506172839,0,0,0.06172839506172839,19.691358024691358,0)" xlink:href="#W"/><use transform="matrix(0.06172839506172839,0,0,0.06172839506172839,32.03703703703704,0)" xlink:href="#X"/><use transform="matrix(0.06172839506172839,0,0,0.06172839506172839,44.382716049382715,0)" xlink:href="#Y"/><use transform="matrix(0.06172839506172839,0,0,0.06172839506172839,55.49382716049382,0)" xlink:href="#V"/><use transform="matrix(0.06172839506172839,0,0,0.06172839506172839,67.8395061728395,0)" xlink:href="#W"/><use transform="matrix(0.06172839506172839,0,0,0.06172839506172839,80.18518518518519,0)" xlink:href="#X"/><use transform="matrix(0.06172839506172839,0,0,0.06172839506172839,92.53086419753087,0)" xlink:href="#Z"/></g><linearGradient gradientUnits="userSpaceOnUse" id="g" x1="-1296.92" y1="-4438.85" x2="-1296.92" y2="-4331.54"><stop offset="0%" stop-color="#b4d7ff"/><stop offset="55.23%" stop-color="#6db1ff"/><stop offset="100%" stop-color="#2b8eff"/></linearGradient><linearGradient gradientUnits="userSpaceOnUse" id="h" x1="-1306.15" y1="-4425" x2="-1306.15" y2="-4317.69"><stop offset="0%" stop-color="#87dd8e"/><stop offset="50.98%" stop-color="#54c45e"/><stop offset="100%" stop-color="#369e3f"/></linearGradient><linearGradient gradientUnits="userSpaceOnUse" id="i" x1="-1320" y1="-4411.15" x2="-1320" y2="-4303.85"><stop offset="0%" stop-color="#ffd2d2"/><stop offset="57.39%" stop-color="#ff8f8f"/><stop offset="100%" stop-color="#ff5151"/></linearGradient><path fill="#282c33" d="M101-251c82-7 93 87 43 132L82-64C71-53 59-42 53-27h129V0H18c2-99 128-94 128-182 0-28-16-43-45-43s-46 15-49 41l-32-3c6-41 34-60 81-64" id="aa"/><g id="j"><use transform="matrix(0.06172839506172839,0,0,0.06172839506172839,0,0)" xlink:href="#U"/><use transform="matrix(0.06172839506172839,0,0,0.06172839506172839,7.345679012345679,0)" xlink:href="#W"/><use transform="matrix(0.06172839506172839,0,0,0.06172839506172839,19.691358024691358,0)" xlink:href="#aa"/><use transform="matrix(0.06172839506172839,0,0,0.06172839506172839,32.03703703703704,0)" xlink:href="#Y"/><use transform="matrix(0.06172839506172839,0,0,0.06172839506172839,43.14814814814815,0)" xlink:href="#W"/><use transform="matrix(0.06172839506172839,0,0,0.06172839506172839,55.49382716049383,0)" xlink:href="#aa"/><use transform="matrix(0.06172839506172839,0,0,0.06172839506172839,67.8395061728395,0)" xlink:href="#Z"/></g><linearGradient gradientUnits="userSpaceOnUse" id="k" x1="-956.92" y1="-4760" x2="-956.92" y2="-4652.69"><stop offset="0%" stop-color="#b4d7ff"/><stop offset="55.23%" stop-color="#6db1ff"/><stop offset="100%" stop-color="#2b8eff"/></linearGradient><linearGradient gradientUnits="userSpaceOnUse" id="l" x1="-966.15" y1="-4746.15" x2="-966.15" y2="-4638.85"><stop offset="0%" stop-color="#87dd8e"/><stop offset="50.98%" stop-color="#54c45e"/><stop offset="100%" stop-color="#369e3f"/></linearGradient><linearGradient gradientUnits="userSpaceOnUse" id="m" x1="-980" y1="-4732.31" x2="-980" y2="-4625"><stop offset="0%" stop-color="#ffd2d2"/><stop offset="57.39%" stop-color="#ff8f8f"/><stop offset="100%" stop-color="#ff5151"/></linearGradient><linearGradient gradientUnits="userSpaceOnUse" id="n" x1="-956.92" y1="-4600" x2="-956.92" y2="-4492.69"><stop offset="0%" stop-color="#b4d7ff"/><stop offset="55.23%" stop-color="#6db1ff"/><stop offset="100%" stop-color="#2b8eff"/></linearGradient><linearGradient gradientUnits="userSpaceOnUse" id="o" x1="-966.15" y1="-4586.15" x2="-966.15" y2="-4478.85"><stop offset="0%" stop-color="#87dd8e"/><stop offset="50.98%" stop-color="#54c45e"/><stop offset="100%" stop-color="#369e3f"/></linearGradient><linearGradient gradientUnits="userSpaceOnUse" id="p" x1="-980" y1="-4572.31" x2="-980" y2="-4465"><stop offset="0%" stop-color="#ffd2d2"/><stop offset="57.39%" stop-color="#ff8f8f"/><stop offset="100%" stop-color="#ff5151"/></linearGradient><linearGradient gradientUnits="userSpaceOnUse" id="q" x1="-954.62" y1="-4440" x2="-954.62" y2="-4332.69"><stop offset="0%" stop-color="#b4d7ff"/><stop offset="55.23%" stop-color="#6db1ff"/><stop offset="100%" stop-color="#2b8eff"/></linearGradient><linearGradient gradientUnits="userSpaceOnUse" id="r" x1="-963.85" y1="-4426.15" x2="-963.85" y2="-4318.85"><stop offset="0%" stop-color="#87dd8e"/><stop offset="50.98%" stop-color="#54c45e"/><stop offset="100%" stop-color="#369e3f"/></linearGradient><linearGradient gradientUnits="userSpaceOnUse" id="s" x1="-977.69" y1="-4412.31" x2="-977.69" y2="-4305"><stop offset="0%" stop-color="#ffd2d2"/><stop offset="57.39%" stop-color="#ff8f8f"/><stop offset="100%" stop-color="#ff5151"/></linearGradient><linearGradient gradientUnits="userSpaceOnUse" id="t" x1="-956.92" y1="-4280" x2="-956.92" y2="-4172.69"><stop offset="0%" stop-color="#b4d7ff"/><stop offset="55.23%" stop-color="#6db1ff"/><stop offset="100%" stop-color="#2b8eff"/></linearGradient><linearGradient gradientUnits="userSpaceOnUse" id="u" x1="-966.15" y1="-4266.15" x2="-966.15" y2="-4158.85"><stop offset="0%" stop-color="#87dd8e"/><stop offset="50.98%" stop-color="#54c45e"/><stop offset="100%" stop-color="#369e3f"/></linearGradient><linearGradient gradientUnits="userSpaceOnUse" id="v" x1="-980" y1="-4252.31" x2="-980" y2="-4145"><stop offset="0%" stop-color="#ffd2d2"/><stop offset="57.39%" stop-color="#ff8f8f"/><stop offset="100%" stop-color="#ff5151"/></linearGradient><linearGradient gradientUnits="userSpaceOnUse" id="w" x1="-954.62" y1="-4120" x2="-954.62" y2="-4012.69"><stop offset="0%" stop-color="#b4d7ff"/><stop offset="55.23%" stop-color="#6db1ff"/><stop offset="100%" stop-color="#2b8eff"/></linearGradient><linearGradient gradientUnits="userSpaceOnUse" id="x" x1="-963.85" y1="-4106.15" x2="-963.85" y2="-3998.85"><stop offset="0%" stop-color="#87dd8e"/><stop offset="50.98%" stop-color="#54c45e"/><stop offset="100%" stop-color="#369e3f"/></linearGradient><linearGradient gradientUnits="userSpaceOnUse" id="y" x1="-977.69" y1="-4092.31" x2="-977.69" y2="-3985"><stop offset="0%" stop-color="#ffd2d2"/><stop offset="57.39%" stop-color="#ff8f8f"/><stop offset="100%" stop-color="#ff5151"/></linearGradient><linearGradient gradientUnits="userSpaceOnUse" id="z" x1="-645.2" y1="-4732.31" x2="-645.2" y2="-4625"><stop offset="0%" stop-color="#f7f8f9"/><stop offset="56.67%" stop-color="#ced4db"/><stop offset="100%" stop-color="#a5b0bd"/></linearGradient><path fill="#282c33" d="M179-190L93 31C79 59 56 82 12 73V49c39 6 53-20 64-50L1-190h34L92-34l54-156h33" id="ab"/><g id="A"><use transform="matrix(0.06172839506172839,0,0,0.06172839506172839,0,0)" xlink:href="#N"/><use transform="matrix(0.06172839506172839,0,0,0.06172839506172839,17.28395061728395,0)" xlink:href="#Q"/><use transform="matrix(0.06172839506172839,0,0,0.06172839506172839,24.629629629629626,0)" xlink:href="#R"/><use transform="matrix(0.06172839506172839,0,0,0.06172839506172839,36.9753086419753,0)" xlink:href="#ab"/></g><linearGradient gradientUnits="userSpaceOnUse" id="B" x1="-645.2" y1="-4572.31" x2="-645.2" y2="-4465"><stop offset="0%" stop-color="#f7f8f9"/><stop offset="56.67%" stop-color="#ced4db"/><stop offset="100%" stop-color="#a5b0bd"/></linearGradient><linearGradient gradientUnits="userSpaceOnUse" id="C" x1="-645.2" y1="-4411.15" x2="-645.2" y2="-4303.85"><stop offset="0%" stop-color="#f7f8f9"/><stop offset="56.67%" stop-color="#ced4db"/><stop offset="100%" stop-color="#a5b0bd"/></linearGradient><linearGradient gradientUnits="userSpaceOnUse" id="D" x1="-645.2" y1="-4252.31" x2="-645.2" y2="-4145"><stop offset="0%" stop-color="#f7f8f9"/><stop offset="56.67%" stop-color="#ced4db"/><stop offset="100%" stop-color="#a5b0bd"/></linearGradient><linearGradient gradientUnits="userSpaceOnUse" id="E" x1="-645.2" y1="-4093.46" x2="-645.2" y2="-3986.15"><stop offset="0%" stop-color="#f7f8f9"/><stop offset="56.67%" stop-color="#ced4db"/><stop offset="100%" stop-color="#a5b0bd"/></linearGradient><linearGradient gradientUnits="userSpaceOnUse" id="F" x1="-205.2" y1="-4468.85" x2="-205.2" y2="-4361.54"><stop offset="0%" stop-color="#f7f8f9"/><stop offset="56.67%" stop-color="#ced4db"/><stop offset="100%" stop-color="#a5b0bd"/></linearGradient><linearGradient gradientUnits="userSpaceOnUse" id="G" x1="-225.2" y1="-4452.51" x2="-225.2" y2="-4345.2"><stop offset="0%" stop-color="#f7f8f9"/><stop offset="56.67%" stop-color="#ced4db"/><stop offset="100%" stop-color="#a5b0bd"/></linearGradient><linearGradient gradientUnits="userSpaceOnUse" id="H" x1="-245.2" y1="-4438.66" x2="-245.2" y2="-4331.35"><stop offset="0%" stop-color="#f7f8f9"/><stop offset="56.67%" stop-color="#ced4db"/><stop offset="100%" stop-color="#a5b0bd"/></linearGradient><linearGradient gradientUnits="userSpaceOnUse" id="I" x1="-265.2" y1="-4424.81" x2="-265.2" y2="-4317.51"><stop offset="0%" stop-color="#f7f8f9"/><stop offset="56.67%" stop-color="#ced4db"/><stop offset="100%" stop-color="#a5b0bd"/></linearGradient><linearGradient gradientUnits="userSpaceOnUse" id="J" x1="-285.2" y1="-4408.85" x2="-285.2" y2="-4301.54"><stop offset="0%" stop-color="#f7f8f9"/><stop offset="56.67%" stop-color="#ced4db"/><stop offset="100%" stop-color="#a5b0bd"/></linearGradient><path fill="#282c33" d="M185-189c-5-48-123-54-124 2 14 75 158 14 163 119 3 78-121 87-175 55-17-10-28-26-33-46l33-7c5 56 141 63 141-1 0-78-155-14-162-118-5-82 145-84 179-34 5 7 8 16 11 25" id="ac"/><path fill="#282c33" d="M59-47c-2 24 18 29 38 22v24C64 9 27 4 27-40v-127H5v-23h24l9-43h21v43h35v23H59v120" id="ad"/><g id="K"><use transform="matrix(0.06172839506172839,0,0,0.06172839506172839,0,0)" xlink:href="#ac"/><use transform="matrix(0.06172839506172839,0,0,0.06172839506172839,14.814814814814813,0)" xlink:href="#ad"/><use transform="matrix(0.06172839506172839,0,0,0.06172839506172839,20.98765432098765,0)" xlink:href="#R"/><use transform="matrix(0.06172839506172839,0,0,0.06172839506172839,33.33333333333333,0)" xlink:href="#ad"/><use transform="matrix(0.06172839506172839,0,0,0.06172839506172839,39.50617283950617,0)" xlink:href="#T"/></g><path fill="#282c33" d="M54-142c48-35 137-8 131 61C196 18 31 33 14-55l32-4c7 23 22 37 52 37 35-1 51-22 54-58 4-55-73-65-99-34H22l8-134h141v27H59" id="ae"/><g id="L"><use transform="matrix(0.06172839506172839,0,0,0.06172839506172839,0,0)" xlink:href="#U"/><use transform="matrix(0.06172839506172839,0,0,0.06172839506172839,7.345679012345679,0)" xlink:href="#ae"/><use transform="matrix(0.06172839506172839,0,0,0.06172839506172839,19.691358024691358,0)" xlink:href="#Y"/><use transform="matrix(0.06172839506172839,0,0,0.06172839506172839,30.80246913580247,0)" xlink:href="#W"/><use transform="matrix(0.06172839506172839,0,0,0.06172839506172839,43.148148148148145,0)" xlink:href="#aa"/><use transform="matrix(0.06172839506172839,0,0,0.06172839506172839,55.49382716049382,0)" xlink:href="#Y"/><use transform="matrix(0.06172839506172839,0,0,0.06172839506172839,66.60493827160494,0)" xlink:href="#W"/><use transform="matrix(0.06172839506172839,0,0,0.06172839506172839,78.95061728395062,0)" xlink:href="#aa"/><use transform="matrix(0.06172839506172839,0,0,0.06172839506172839,91.2962962962963,0)" xlink:href="#Z"/></g></defs></g></svg>